<svg width="144" height="15" viewBox="0 0 144 15" fill="none" xmlns="http://www.w3.org/2000/svg">
<path d="M9.26758 7.37891C9.26758 8.70052 9.08203 9.93424 8.71094 11.0801C8.48958 11.7832 8.1901 12.3594 7.8125 12.8086C7.44141 13.2578 7.01823 13.6159 6.54297 13.8828C6.06771 14.1432 5.55013 14.2734 4.99023 14.2734C4.35221 14.2734 3.77604 14.1107 3.26172 13.7852C2.7474 13.4596 2.29167 12.9941 1.89453 12.3887C1.60807 11.946 1.35742 11.3568 1.14258 10.6211C0.86263 9.625 0.722656 8.59635 0.722656 7.53516C0.722656 6.09635 0.924479 4.77474 1.32812 3.57031C1.66016 2.57422 2.16471 1.8125 2.8418 1.28516C3.51888 0.751302 4.23503 0.484375 4.99023 0.484375C5.75846 0.484375 6.47461 0.748047 7.13867 1.27539C7.80924 1.79622 8.30078 2.49935 8.61328 3.38477C9.04948 4.60221 9.26758 5.93359 9.26758 7.37891ZM6.25977 7.35938C6.25977 5.04167 6.24674 3.69076 6.2207 3.30664C6.1556 2.40169 5.99935 1.78971 5.75195 1.4707C5.58919 1.26237 5.32552 1.1582 4.96094 1.1582C4.68099 1.1582 4.45964 1.23633 4.29688 1.39258C4.05599 1.62044 3.89323 2.02409 3.80859 2.60352C3.72396 3.17643 3.68164 5.1849 3.68164 8.62891C3.68164 10.5039 3.74674 11.7604 3.87695 12.3984C3.97461 12.8607 4.11458 13.1699 4.29688 13.3262C4.47917 13.4824 4.72005 13.5605 5.01953 13.5605C5.34505 13.5605 5.58919 13.4564 5.75195 13.248C6.02539 12.8835 6.18164 12.3203 6.2207 11.5586L6.25977 7.35938ZM16.8164 6.51953C17.7474 7.20312 18.3919 7.84115 18.75 8.43359C19.1146 9.01953 19.2969 9.69336 19.2969 10.4551C19.2969 11.5228 18.8932 12.4277 18.0859 13.1699C17.2852 13.9056 16.1947 14.2734 14.8145 14.2734C13.5059 14.2734 12.4935 13.9512 11.7773 13.3066C11.0612 12.6621 10.7031 11.8743 10.7031 10.9434C10.7031 10.2337 10.9082 9.61198 11.3184 9.07812C11.735 8.54427 12.4251 8.05599 13.3887 7.61328C12.3405 6.8125 11.6667 6.1582 11.3672 5.65039C11.0742 5.14258 10.9277 4.55339 10.9277 3.88281C10.9277 2.9974 11.3021 2.2194 12.0508 1.54883C12.806 0.871745 13.8379 0.533203 15.1465 0.533203C16.4095 0.533203 17.3796 0.832682 18.0566 1.43164C18.7402 2.02409 19.082 2.73698 19.082 3.57031C19.082 4.19531 18.8965 4.7487 18.5254 5.23047C18.1608 5.70573 17.5911 6.13542 16.8164 6.51953ZM16.0742 6.02148C16.3151 5.69596 16.4941 5.33138 16.6113 4.92773C16.7285 4.52409 16.7871 4.08138 16.7871 3.59961C16.7871 2.75326 16.6048 2.10547 16.2402 1.65625C15.9668 1.3112 15.5892 1.13867 15.1074 1.13867C14.6712 1.13867 14.3001 1.29818 13.9941 1.61719C13.6882 1.92969 13.5352 2.32031 13.5352 2.78906C13.5352 3.26432 13.7044 3.75911 14.043 4.27344C14.388 4.78125 15.0651 5.36393 16.0742 6.02148ZM14.1211 8.08203C13.9193 8.26432 13.776 8.43034 13.6914 8.58008C13.5612 8.80794 13.444 9.13997 13.3398 9.57617C13.2357 10.0124 13.1836 10.4681 13.1836 10.9434C13.1836 11.5553 13.2617 12.0697 13.418 12.4863C13.5742 12.8965 13.7956 13.1927 14.082 13.375C14.375 13.5573 14.6745 13.6484 14.9805 13.6484C15.4557 13.6484 15.8561 13.4759 16.1816 13.1309C16.5072 12.7793 16.6699 12.3008 16.6699 11.6953C16.6699 10.4323 15.8203 9.22786 14.1211 8.08203ZM26.5137 0.484375V11.3145C26.5137 12.1283 26.5495 12.6491 26.6211 12.877C26.6927 13.0983 26.8424 13.2806 27.0703 13.4238C27.2982 13.5671 27.6628 13.6387 28.1641 13.6387H28.4668V14H21.4941V13.6387H21.8457C22.4121 13.6387 22.8158 13.5736 23.0566 13.4434C23.2975 13.3132 23.4603 13.1341 23.5449 12.9062C23.6296 12.6784 23.6719 12.1478 23.6719 11.3145V4.44922C23.6719 3.83724 23.6426 3.45638 23.584 3.30664C23.5254 3.15039 23.4147 3.02018 23.252 2.91602C23.0957 2.80534 22.9134 2.75 22.7051 2.75C22.373 2.75 21.9694 2.85417 21.4941 3.0625L21.3184 2.71094L26.1914 0.484375H26.5137ZM39.2676 7.37891C39.2676 8.70052 39.082 9.93424 38.7109 11.0801C38.4896 11.7832 38.1901 12.3594 37.8125 12.8086C37.4414 13.2578 37.0182 13.6159 36.543 13.8828C36.0677 14.1432 35.5501 14.2734 34.9902 14.2734C34.3522 14.2734 33.776 14.1107 33.2617 13.7852C32.7474 13.4596 32.2917 12.9941 31.8945 12.3887C31.6081 11.946 31.3574 11.3568 31.1426 10.6211C30.8626 9.625 30.7227 8.59635 30.7227 7.53516C30.7227 6.09635 30.9245 4.77474 31.3281 3.57031C31.6602 2.57422 32.1647 1.8125 32.8418 1.28516C33.5189 0.751302 34.235 0.484375 34.9902 0.484375C35.7585 0.484375 36.4746 0.748047 37.1387 1.27539C37.8092 1.79622 38.3008 2.49935 38.6133 3.38477C39.0495 4.60221 39.2676 5.93359 39.2676 7.37891ZM36.2598 7.35938C36.2598 5.04167 36.2467 3.69076 36.2207 3.30664C36.1556 2.40169 35.9993 1.78971 35.752 1.4707C35.5892 1.26237 35.3255 1.1582 34.9609 1.1582C34.681 1.1582 34.4596 1.23633 34.2969 1.39258C34.056 1.62044 33.8932 2.02409 33.8086 2.60352C33.724 3.17643 33.6816 5.1849 33.6816 8.62891C33.6816 10.5039 33.7467 11.7604 33.877 12.3984C33.9746 12.8607 34.1146 13.1699 34.2969 13.3262C34.4792 13.4824 34.7201 13.5605 35.0195 13.5605C35.3451 13.5605 35.5892 13.4564 35.752 13.248C36.0254 12.8835 36.1816 12.3203 36.2207 11.5586L36.2598 7.35938ZM51.1816 10.416H45.4883V8.39453H51.1816V10.416ZM65.5566 6.97852C66.8132 7.27148 67.6953 7.6263 68.2031 8.04297C68.9323 8.63542 69.2969 9.40365 69.2969 10.3477C69.2969 11.3438 68.8965 12.1673 68.0957 12.8184C67.1126 13.6061 65.6836 14 63.8086 14H57.0801V13.6387C57.6921 13.6387 58.1055 13.5833 58.3203 13.4727C58.5417 13.3555 58.6947 13.2057 58.7793 13.0234C58.8704 12.8411 58.916 12.3919 58.916 11.6758V3.08203C58.916 2.36589 58.8704 1.91667 58.7793 1.73438C58.6947 1.54557 58.5417 1.39583 58.3203 1.28516C58.099 1.17448 57.6855 1.11914 57.0801 1.11914V0.757812H63.4277C64.9447 0.757812 66.0189 0.894531 66.6504 1.16797C67.2819 1.4349 67.7799 1.83854 68.1445 2.37891C68.5091 2.91276 68.6914 3.48242 68.6914 4.08789C68.6914 4.72591 68.4603 5.29557 67.998 5.79688C67.5358 6.29167 66.722 6.68555 65.5566 6.97852ZM62.002 6.71484C62.9264 6.71484 63.6068 6.61068 64.043 6.40234C64.4857 6.19401 64.8242 5.90104 65.0586 5.52344C65.293 5.14583 65.4102 4.66406 65.4102 4.07812C65.4102 3.49219 65.293 3.01367 65.0586 2.64258C64.8307 2.26497 64.502 1.97852 64.0723 1.7832C63.6426 1.58789 62.9525 1.49349 62.002 1.5V6.71484ZM62.002 7.47656V11.7246L61.9922 12.2129C61.9922 12.5645 62.0801 12.8314 62.2559 13.0137C62.4382 13.1895 62.7051 13.2773 63.0566 13.2773C63.5775 13.2773 64.056 13.1634 64.4922 12.9355C64.9349 12.7012 65.2734 12.3659 65.5078 11.9297C65.7422 11.487 65.8594 10.9954 65.8594 10.4551C65.8594 9.83659 65.7161 9.2832 65.4297 8.79492C65.1432 8.30013 64.7493 7.95508 64.248 7.75977C63.7467 7.56445 62.998 7.47005 62.002 7.47656ZM78.3203 10.2305H73.6426L73.0859 11.5195C72.9036 11.9492 72.8125 12.304 72.8125 12.584C72.8125 12.9551 72.9622 13.2285 73.2617 13.4043C73.4375 13.5085 73.8704 13.5866 74.5605 13.6387V14H70.1562V13.6387C70.6315 13.5671 71.0221 13.3717 71.3281 13.0527C71.6341 12.7272 72.0117 12.0599 72.4609 11.0508L77.1973 0.484375H77.3828L82.1582 11.3438C82.6139 12.3724 82.9883 13.0202 83.2812 13.2871C83.5026 13.4889 83.8151 13.6061 84.2188 13.6387V14H77.8125V13.6387H78.0762C78.5905 13.6387 78.9518 13.5671 79.1602 13.4238C79.3034 13.3197 79.375 13.1699 79.375 12.9746C79.375 12.8574 79.3555 12.737 79.3164 12.6133C79.3034 12.5547 79.2057 12.3105 79.0234 11.8809L78.3203 10.2305ZM77.9883 9.50781L76.0156 4.94727L73.9844 9.50781H77.9883ZM95.5859 0.757812V4.3418H95.2344C95.026 3.51497 94.7949 2.92253 94.541 2.56445C94.2871 2.19987 93.9388 1.91016 93.4961 1.69531C93.2487 1.57812 92.8158 1.51953 92.1973 1.51953H91.2109V11.7344C91.2109 12.4115 91.2467 12.8346 91.3184 13.0039C91.3965 13.1732 91.543 13.3229 91.7578 13.4531C91.9792 13.5768 92.2786 13.6387 92.6562 13.6387H93.0957V14H86.1621V13.6387H86.6016C86.9857 13.6387 87.2949 13.5703 87.5293 13.4336C87.6986 13.3424 87.832 13.1862 87.9297 12.9648C88.0013 12.8086 88.0371 12.3984 88.0371 11.7344V1.51953H87.0801C86.1882 1.51953 85.5404 1.70833 85.1367 2.08594C84.5703 2.61328 84.2122 3.36523 84.0625 4.3418H83.6914V0.757812H95.5859ZM105.84 9.48828L109.434 0.757812H114.824V1.11914H114.395C114.004 1.11914 113.691 1.1875 113.457 1.32422C113.294 1.41536 113.164 1.56836 113.066 1.7832C112.995 1.93945 112.959 2.34635 112.959 3.00391V11.7344C112.959 12.4115 112.995 12.8346 113.066 13.0039C113.138 13.1732 113.285 13.3229 113.506 13.4531C113.727 13.5768 114.023 13.6387 114.395 13.6387H114.824V14H107.91V13.6387H108.34C108.73 13.6387 109.043 13.5703 109.277 13.4336C109.44 13.3424 109.57 13.1862 109.668 12.9648C109.74 12.8086 109.775 12.3984 109.775 11.7344V1.91992L104.697 14H104.463L99.3066 2.00781V11.334C99.3066 11.985 99.3229 12.3854 99.3555 12.5352C99.4401 12.8607 99.6224 13.1276 99.9023 13.3359C100.189 13.5378 100.635 13.6387 101.24 13.6387V14H96.709V13.6387H96.8457C97.1387 13.6452 97.4121 13.5996 97.666 13.502C97.9199 13.3978 98.112 13.2611 98.2422 13.0918C98.3724 12.9225 98.4733 12.6849 98.5449 12.3789C98.5579 12.3073 98.5645 11.9753 98.5645 11.3828V3.00391C98.5645 2.33333 98.5286 1.91667 98.457 1.75391C98.3854 1.58464 98.2389 1.43815 98.0176 1.31445C97.7962 1.18424 97.5 1.11914 97.1289 1.11914H96.709V0.757812H102.119L105.84 9.48828ZM123.516 10.2305H118.838L118.281 11.5195C118.099 11.9492 118.008 12.304 118.008 12.584C118.008 12.9551 118.158 13.2285 118.457 13.4043C118.633 13.5085 119.066 13.5866 119.756 13.6387V14H115.352V13.6387C115.827 13.5671 116.217 13.3717 116.523 13.0527C116.829 12.7272 117.207 12.0599 117.656 11.0508L122.393 0.484375H122.578L127.354 11.3438C127.809 12.3724 128.184 13.0202 128.477 13.2871C128.698 13.4889 129.01 13.6061 129.414 13.6387V14H123.008V13.6387H123.271C123.786 13.6387 124.147 13.5671 124.355 13.4238C124.499 13.3197 124.57 13.1699 124.57 12.9746C124.57 12.8574 124.551 12.737 124.512 12.6133C124.499 12.5547 124.401 12.3105 124.219 11.8809L123.516 10.2305ZM123.184 9.50781L121.211 4.94727L119.18 9.50781H123.184ZM134.629 0.757812L141.162 8.9707V3.27734C141.162 2.48307 141.048 1.94596 140.82 1.66602C140.508 1.28841 139.984 1.10612 139.248 1.11914V0.757812H143.623V1.11914C143.063 1.19076 142.686 1.28516 142.49 1.40234C142.301 1.51302 142.152 1.69857 142.041 1.95898C141.937 2.21289 141.885 2.65234 141.885 3.27734V14.3027H141.553L132.598 3.27734V11.6953C132.598 12.457 132.77 12.9714 133.115 13.2383C133.467 13.5052 133.867 13.6387 134.316 13.6387H134.629V14H129.932V13.6387C130.661 13.6322 131.169 13.4824 131.455 13.1895C131.742 12.8965 131.885 12.3984 131.885 11.6953V2.34961L131.602 1.99805C131.322 1.64648 131.074 1.41536 130.859 1.30469C130.645 1.19401 130.335 1.13216 129.932 1.11914V0.757812H134.629Z" fill="white"/>
</svg>
